# xmcd
#
# Track frame offsets:
#	150
#	11573
#	19943
#	29573
#	40373
#	51398
#	60676
#	71079
#	81264
#	90287
#	100420
#
# Disc length: 1517 seconds
#
# Revision: 0
# Processed by: cddbd v1.5.2PL0 Copyright (c) Steve Scherf et al.
# Submitted via: audiograbber 1.83.01
#
DISCID=9205eb0b
DTITLE=Mil Tillis - Heart Over Mind
DYEAR=1962
DGENRE=Country
TTITLE0=Heart Over Mind 
TTITLE1=I Ain't Never
TTITLE2=Ten Thousand Drums
TTITLE3=No Love Have I
TTITLE4=I'm Tired
TTITLE5=Tupelo County Jail
TTITLE6=Mary, Don't You Weep
TTITLE7=Holiday For Love
TTITLE8=Shanghaied
TTITLE9=A Thousand Miles Ago
TTITLE10=Emotions
EXTD=
EXTT0=
EXTT1=
EXTT2=
EXTT3=
EXTT4=
EXTT5=
EXTT6=
EXTT7=
EXTT8=
EXTT9=
EXTT10=
PLAYORDER=
